<svg xmlns="http://www.w3.org/2000/svg" version="1.1" xmlns:xlink="http://www.w3.org/1999/xlink" xmlns:svgjs="http://svgjs.com/svgjs" width="400" height="400"><svg id="SvgjsSvg1004" version="1.1" xmlns="http://www.w3.org/2000/svg" xmlns:xlink="http://www.w3.org/1999/xlink" width="400" height="400" viewBox="0, 0, 400,400"><g id="SvgjsG1003"><path id="SvgjsPath1002" d="M181.968 26.372 C 182.311 26.589,180.633 26.643,177.726 26.509 C 174.341 26.353,172.833 26.423,172.635 26.744 C 172.480 26.995,171.868 27.203,171.276 27.206 C 170.404 27.211,170.314 27.293,170.800 27.641 C 171.282 27.985,171.223 28.031,170.500 27.872 C 170.006 27.764,169.495 27.847,169.365 28.057 C 169.224 28.285,168.876 28.229,168.502 27.919 C 167.953 27.464,168.019 27.369,169.037 27.147 C 170.013 26.935,169.911 26.888,168.400 26.853 C 167.103 26.824,166.768 26.921,167.200 27.200 C 167.698 27.522,167.664 27.590,167.000 27.600 C 166.323 27.610,166.292 27.679,166.800 28.044 C 167.299 28.403,167.277 28.435,166.667 28.238 C 166.264 28.107,165.454 27.982,164.867 27.960 L 163.800 27.920 164.800 27.602 C 165.350 27.427,164.000 27.383,161.800 27.503 C 159.600 27.623,157.742 27.869,157.671 28.049 C 157.599 28.229,156.699 28.297,155.671 28.201 C 153.924 28.036,153.900 28.046,155.304 28.350 C 158.701 29.085,156.810 29.327,153.200 28.619 C 152.650 28.512,150.850 28.574,149.200 28.757 C 147.550 28.941,146.740 29.119,147.400 29.152 C 148.060 29.185,148.870 29.389,149.200 29.606 C 149.799 29.998,149.690 29.992,146.030 29.416 C 140.722 28.581,104.745 35.866,88.942 40.975 C 73.978 45.812,57.240 54.592,55.793 58.363 C 55.650 58.736,56.001 58.588,56.678 57.991 C 57.295 57.446,57.671 57.159,57.514 57.353 C 57.357 57.547,57.393 58.014,57.595 58.391 C 57.839 58.846,57.785 59.332,57.437 59.838 C 57.148 60.257,56.961 60.915,57.021 61.300 C 57.080 61.685,56.955 62.000,56.741 62.000 C 56.527 62.000,56.493 62.225,56.665 62.500 C 57.196 63.349,57.215 64.175,56.692 63.652 C 56.444 63.404,56.068 63.200,55.859 63.200 C 55.649 63.200,55.893 63.560,56.400 64.000 C 57.231 64.721,57.248 64.800,56.572 64.800 C 55.912 64.800,55.934 64.878,56.752 65.451 C 57.480 65.961,57.564 66.177,57.141 66.445 C 56.709 66.719,56.705 66.789,57.124 66.794 C 57.412 66.797,57.545 66.965,57.420 67.168 C 57.295 67.370,57.496 67.839,57.867 68.210 C 58.238 68.581,58.591 69.360,58.653 69.942 C 58.731 70.684,58.295 70.164,57.191 68.200 C 54.571 63.540,55.397 65.602,59.163 73.125 C 81.841 118.429,124.983 150.803,172.291 158.018 C 173.881 158.260,175.350 158.354,175.557 158.227 C 175.763 158.099,175.992 158.154,176.066 158.349 C 176.613 159.790,205.207 160.523,216.800 159.393 C 269.789 154.225,315.870 122.493,339.883 74.636 C 347.937 58.586,345.345 54.197,322.116 44.549 C 314.007 41.181,295.228 35.436,297.934 37.150 C 298.361 37.421,298.336 37.539,297.813 37.740 C 297.385 37.904,297.255 37.834,297.439 37.537 C 297.631 37.227,297.385 37.148,296.659 37.287 C 295.390 37.529,295.270 37.296,296.442 36.863 C 299.283 35.812,260.608 29.050,253.855 29.417 C 251.779 29.530,251.647 29.502,253.000 29.232 L 254.600 28.914 252.800 28.853 C 251.810 28.820,250.010 28.711,248.800 28.610 C 247.269 28.483,246.965 28.523,247.800 28.742 C 248.661 28.968,248.136 29.049,245.940 29.029 C 242.780 28.999,241.950 28.442,244.924 28.346 C 248.199 28.240,240.692 27.643,234.544 27.520 C 231.213 27.454,228.671 27.286,228.893 27.146 C 229.469 26.785,212.523 26.254,208.200 26.498 C 206.220 26.609,205.050 26.561,205.600 26.390 C 206.228 26.195,205.259 26.090,203.000 26.107 C 199.751 26.132,199.634 26.157,201.800 26.367 C 204.158 26.596,204.130 26.605,200.148 26.899 C 197.919 27.063,195.285 27.087,194.296 26.951 C 193.306 26.815,190.706 26.912,188.519 27.167 C 184.716 27.609,183.200 27.500,183.200 26.787 C 183.200 26.606,183.515 26.376,183.900 26.276 C 184.285 26.175,183.880 26.075,183.000 26.053 C 181.911 26.025,181.581 26.127,181.968 26.372 M180.200 27.211 C 180.693 27.431,179.543 27.476,177.200 27.329 C 175.110 27.198,173.325 27.026,173.233 26.946 C 172.870 26.628,179.452 26.879,180.200 27.211 M227.305 27.482 C 226.814 27.577,225.914 27.579,225.305 27.487 C 224.697 27.395,225.100 27.317,226.200 27.314 C 227.300 27.311,227.797 27.387,227.305 27.482 M232.305 27.875 C 231.922 27.975,231.202 27.979,230.705 27.883 C 230.207 27.787,230.520 27.705,231.400 27.701 C 232.280 27.696,232.687 27.775,232.305 27.875 M160.500 28.282 C 160.005 28.378,159.195 28.378,158.700 28.282 C 158.205 28.187,158.610 28.109,159.600 28.109 C 160.590 28.109,160.995 28.187,160.500 28.282 M153.600 29.206 C 154.022 29.482,153.785 29.523,152.800 29.342 C 151.075 29.025,150.749 28.798,152.033 28.806 C 152.565 28.809,153.270 28.989,153.600 29.206 M146.000 30.000 C 146.533 30.345,146.533 30.388,146.000 30.388 C 145.670 30.388,145.130 30.213,144.800 30.000 C 144.267 29.655,144.267 29.612,144.800 29.612 C 145.130 29.612,145.670 29.787,146.000 30.000 M257.167 29.743 C 257.075 29.821,256.370 30.001,255.600 30.142 C 254.615 30.323,254.378 30.282,254.800 30.006 C 255.342 29.650,257.563 29.403,257.167 29.743 M285.771 34.358 C 286.460 34.628,286.471 34.687,285.871 34.917 C 285.497 35.061,285.200 34.983,285.200 34.741 C 285.200 34.495,284.772 34.389,284.212 34.496 C 283.669 34.599,283.319 34.530,283.436 34.342 C 283.688 33.934,284.706 33.941,285.771 34.358 M307.934 39.950 C 308.361 40.221,308.336 40.339,307.813 40.540 C 307.381 40.705,307.255 40.635,307.442 40.332 C 307.634 40.021,307.449 39.946,306.862 40.100 C 306.387 40.224,306.100 40.162,306.223 39.963 C 306.502 39.511,307.232 39.506,307.934 39.950 M85.895 42.677 C 85.507 42.778,85.292 43.025,85.416 43.226 C 85.540 43.427,85.347 43.478,84.987 43.340 C 84.217 43.044,84.971 42.383,86.000 42.453 C 86.420 42.481,86.389 42.548,85.895 42.677 M316.334 42.750 C 316.761 43.021,316.736 43.139,316.213 43.340 C 315.781 43.505,315.655 43.435,315.842 43.132 C 316.034 42.821,315.849 42.746,315.262 42.900 C 314.787 43.024,314.500 42.962,314.623 42.763 C 314.902 42.311,315.632 42.306,316.334 42.750 M79.400 45.200 C 78.520 45.607,77.620 45.939,77.400 45.938 C 77.180 45.936,77.720 45.595,78.600 45.178 C 79.480 44.762,80.380 44.430,80.600 44.440 C 80.820 44.451,80.280 44.793,79.400 45.200 M73.287 47.735 C 72.786 48.014,72.510 48.377,72.675 48.542 C 72.840 48.707,72.637 48.712,72.222 48.553 C 71.698 48.352,71.557 48.406,71.758 48.732 C 71.917 48.989,71.957 49.200,71.847 49.200 C 71.737 49.200,71.541 49.029,71.412 48.819 C 71.182 48.447,73.005 47.234,73.800 47.230 C 74.020 47.229,73.789 47.456,73.287 47.735 M70.197 49.595 C 70.342 49.830,70.163 49.884,69.755 49.727 C 69.253 49.535,69.156 49.606,69.396 49.994 C 69.604 50.330,69.568 50.428,69.298 50.261 C 68.694 49.887,67.553 50.400,67.864 50.904 C 68.007 51.135,67.935 51.207,67.704 51.064 C 67.473 50.921,67.169 51.104,67.029 51.469 C 66.837 51.970,66.661 52.021,66.314 51.674 C 65.766 51.126,65.765 51.127,67.800 50.068 C 69.654 49.103,69.867 49.061,70.197 49.595 M336.161 52.108 C 336.753 52.551,336.805 52.749,336.399 53.001 C 336.080 53.198,335.974 53.166,336.126 52.919 C 336.264 52.696,335.482 52.027,334.388 51.432 C 333.295 50.837,332.400 50.268,332.400 50.167 C 332.400 49.933,335.159 51.357,336.161 52.108 M65.806 52.010 C 65.945 52.235,65.911 52.394,65.730 52.363 C 64.878 52.215,64.379 52.443,64.638 52.862 C 64.819 53.155,64.747 53.215,64.442 53.026 C 64.074 52.798,64.071 52.597,64.430 52.164 C 64.983 51.497,65.456 51.444,65.806 52.010 M339.307 53.900 C 340.105 54.505,341.167 55.540,341.668 56.200 C 342.235 56.947,342.318 57.193,341.889 56.851 C 341.510 56.549,341.200 56.442,341.200 56.613 C 341.200 56.784,340.844 56.602,340.409 56.209 C 339.975 55.815,339.710 55.346,339.821 55.167 C 340.052 54.793,338.635 53.932,338.253 54.214 C 338.114 54.316,338.087 54.283,338.194 54.140 C 338.300 53.996,338.075 53.642,337.694 53.352 C 337.312 53.063,337.193 52.820,337.429 52.813 C 337.665 52.806,338.510 53.295,339.307 53.900 M59.252 56.137 C 59.007 56.432,58.900 56.766,59.013 56.880 C 59.127 56.993,58.975 57.289,58.676 57.537 C 58.255 57.887,58.133 57.832,58.132 57.294 C 58.131 56.912,58.416 56.381,58.765 56.113 C 59.607 55.467,59.801 55.476,59.252 56.137 M54.914 61.800 C 54.917 62.900,54.995 63.303,55.087 62.695 C 55.179 62.086,55.177 61.186,55.082 60.695 C 54.987 60.203,54.911 60.700,54.914 61.800 M59.600 62.086 C 59.600 63.276,59.552 63.323,58.945 62.717 C 58.585 62.357,58.400 61.778,58.533 61.431 C 58.950 60.344,59.600 60.742,59.600 62.086 M342.000 69.400 C 342.000 69.704,341.839 70.052,341.642 70.174 C 341.446 70.295,341.311 69.963,341.342 69.436 C 341.402 68.447,342.000 68.414,342.000 69.400 M205.858 79.634 C 220.918 84.216,230.371 99.005,226.948 112.630 C 219.905 140.670,180.366 140.865,173.224 112.894 C 168.481 94.317,188.168 74.253,205.858 79.634 M345.305 106.687 C 345.914 106.779,346.814 106.777,347.305 106.682 C 347.797 106.587,347.300 106.511,346.200 106.514 C 345.100 106.517,344.697 106.595,345.305 106.687 M342.200 107.560 C 341.540 107.977,337.760 111.621,333.800 115.659 L 326.600 123.000 334.200 115.541 C 338.380 111.439,342.340 107.801,343.000 107.457 C 343.660 107.113,344.020 106.825,343.800 106.818 C 343.580 106.810,342.860 107.144,342.200 107.560 M349.379 107.655 C 349.977 108.126,350.620 108.891,350.808 109.355 C 351.047 109.948,351.157 110.008,351.175 109.558 C 351.204 108.806,349.452 106.800,348.765 106.800 C 348.505 106.800,348.781 107.185,349.379 107.655 M345.300 107.476 C 345.685 107.576,346.315 107.576,346.700 107.476 C 347.085 107.375,346.770 107.293,346.000 107.293 C 345.230 107.293,344.915 107.375,345.300 107.476 M351.693 113.600 C 351.693 114.370,351.775 114.685,351.876 114.300 C 351.976 113.915,351.976 113.285,351.876 112.900 C 351.775 112.515,351.693 112.830,351.693 113.600 M66.800 116.200 C 68.217 117.630,69.467 118.800,69.577 118.800 C 69.687 118.800,68.617 117.630,67.200 116.200 C 65.783 114.770,64.533 113.600,64.423 113.600 C 64.313 113.600,65.383 114.770,66.800 116.200 M310.400 114.515 C 310.400 114.578,309.455 115.523,308.300 116.615 L 306.200 118.600 308.185 116.500 C 310.029 114.549,310.400 114.217,310.400 114.515 M48.509 118.000 C 48.509 118.990,48.587 119.395,48.682 118.900 C 48.778 118.405,48.778 117.595,48.682 117.100 C 48.587 116.605,48.509 117.010,48.509 118.000 M325.933 123.553 C 325.860 123.748,323.730 126.117,321.200 128.818 C 315.649 134.743,316.400 133.922,312.985 137.802 C 307.547 143.981,305.504 146.400,305.727 146.400 C 305.851 146.400,307.808 144.267,310.076 141.661 C 312.344 139.054,317.045 133.834,320.523 130.061 C 324.000 126.287,326.670 123.200,326.456 123.200 C 326.242 123.200,326.007 123.359,325.933 123.553 M351.950 126.900 C 351.867 128.055,351.901 131.250,352.024 134.000 L 352.249 139.000 352.324 131.900 C 352.399 124.899,352.242 122.799,351.950 126.900 M48.153 139.000 C 48.153 141.640,48.218 142.668,48.297 141.284 C 48.375 139.901,48.374 137.741,48.295 136.484 C 48.216 135.228,48.152 136.360,48.153 139.000 M302.820 149.900 C 301.452 151.605,300.995 152.280,301.804 151.400 C 303.647 149.395,305.725 146.800,305.487 146.800 C 305.389 146.800,304.188 148.195,302.820 149.900 M299.532 153.900 C 299.207 154.285,298.258 155.500,297.425 156.600 L 295.909 158.600 297.370 157.000 C 298.986 155.231,300.546 153.200,300.289 153.200 C 300.198 153.200,299.858 153.515,299.532 153.900 M175.600 157.600 C 175.270 157.813,174.640 157.973,174.200 157.954 C 173.541 157.926,173.576 157.864,174.400 157.600 C 175.814 157.147,176.301 157.147,175.600 157.600 M186.300 159.076 C 185.915 159.176,185.285 159.176,184.900 159.076 C 184.515 158.975,184.830 158.893,185.600 158.893 C 186.370 158.893,186.685 158.975,186.300 159.076 M215.100 159.076 C 214.715 159.176,214.085 159.176,213.700 159.076 C 213.315 158.975,213.630 158.893,214.400 158.893 C 215.170 158.893,215.485 158.975,215.100 159.076 M292.948 162.300 C 289.354 166.968,289.475 166.800,289.701 166.800 C 289.810 166.800,291.048 165.326,292.450 163.524 C 295.676 159.378,296.092 158.800,295.844 158.800 C 295.734 158.800,294.431 160.375,292.948 162.300 M351.940 173.900 C 351.863 178.465,351.902 184.180,352.027 186.600 C 352.167 189.315,352.282 186.137,352.327 178.300 C 352.367 171.315,352.328 165.600,352.240 165.600 C 352.153 165.600,352.018 169.335,351.940 173.900 M288.915 167.700 C 287.181 169.967,286.266 171.320,286.609 171.113 C 287.081 170.827,289.737 167.200,289.474 167.200 C 289.377 167.200,289.126 167.425,288.915 167.700 M285.125 172.900 C 283.504 175.074,282.240 177.036,282.871 176.400 C 283.686 175.579,286.513 171.600,286.282 171.600 C 286.179 171.600,285.659 172.185,285.125 172.900 M279.600 180.800 C 278.704 182.120,278.060 183.200,278.170 183.200 C 278.280 183.200,279.104 182.120,280.000 180.800 C 280.896 179.480,281.540 178.400,281.430 178.400 C 281.320 178.400,280.496 179.480,279.600 180.800 M276.138 185.900 C 275.339 187.165,274.487 188.460,274.243 188.777 C 273.917 189.201,273.919 189.282,274.251 189.083 C 274.748 188.786,278.086 183.600,277.781 183.600 C 277.676 183.600,276.937 184.635,276.138 185.900 M269.823 195.563 C 268.587 197.521,265.576 202.465,265.294 203.000 C 265.153 203.267,265.220 203.267,265.495 203.000 C 266.066 202.446,271.231 194.000,270.998 194.000 C 270.895 194.000,270.366 194.703,269.823 195.563 M263.479 205.900 C 261.765 208.760,261.120 210.000,261.348 210.000 C 261.445 210.000,262.015 209.145,262.615 208.100 C 263.215 207.055,264.056 205.615,264.485 204.900 C 264.914 204.185,265.174 203.600,265.062 203.600 C 264.950 203.600,264.238 204.635,263.479 205.900 M259.893 212.100 C 258.458 214.582,257.845 215.856,258.307 215.400 C 258.859 214.855,261.326 210.400,261.076 210.400 C 260.966 210.400,260.434 211.165,259.893 212.100 M256.800 217.600 C 256.351 218.480,256.074 219.200,256.184 219.200 C 256.294 219.200,256.751 218.480,257.200 217.600 C 257.649 216.720,257.926 216.000,257.816 216.000 C 257.706 216.000,257.249 216.720,256.800 217.600 M48.144 220.800 C 48.144 222.890,48.212 223.745,48.294 222.700 C 48.376 221.655,48.376 219.945,48.294 218.900 C 48.212 217.855,48.144 218.710,48.144 220.800 M254.600 221.600 C 254.043 222.700,253.677 223.600,253.787 223.600 C 253.897 223.600,254.443 222.700,255.000 221.600 C 255.557 220.500,255.923 219.600,255.813 219.600 C 255.703 219.600,255.157 220.500,254.600 221.600 M351.526 222.900 C 351.428 223.835,351.468 225.680,351.615 227.000 C 351.855 229.152,351.888 228.976,351.941 225.300 C 352.003 221.013,351.829 220.009,351.526 222.900 M251.800 226.800 C 251.024 228.340,250.480 229.600,250.590 229.600 C 250.700 229.600,251.424 228.340,252.200 226.800 C 252.976 225.260,253.520 224.000,253.410 224.000 C 253.300 224.000,252.576 225.260,251.800 226.800 M48.493 236.000 C 48.493 236.770,48.575 237.085,48.676 236.700 C 48.776 236.315,48.776 235.685,48.676 235.300 C 48.575 234.915,48.493 235.230,48.493 236.000 M351.340 238.400 C 351.340 240.270,351.409 241.035,351.493 240.100 C 351.577 239.165,351.577 237.635,351.493 236.700 C 351.409 235.765,351.340 236.530,351.340 238.400 M244.082 242.221 C 243.157 244.086,242.409 245.744,242.420 245.906 C 242.431 246.068,243.253 244.606,244.245 242.659 C 245.238 240.711,245.986 239.052,245.907 238.974 C 245.828 238.895,245.007 240.356,244.082 242.221 M241.472 247.819 C 240.532 249.789,240.664 250.124,241.647 248.262 C 242.093 247.416,242.387 246.654,242.301 246.567 C 242.214 246.481,241.841 247.044,241.472 247.819 M350.914 248.200 C 350.917 249.300,350.995 249.703,351.087 249.095 C 351.179 248.486,351.177 247.586,351.082 247.095 C 350.987 246.603,350.911 247.100,350.914 248.200 M238.667 254.067 C 238.081 255.424,237.666 256.599,237.744 256.678 C 237.823 256.756,238.368 255.711,238.956 254.356 C 239.543 253.000,239.959 251.825,239.878 251.745 C 239.798 251.664,239.252 252.709,238.667 254.067 M235.253 262.053 C 234.780 263.193,234.484 264.217,234.596 264.329 C 234.708 264.442,234.800 264.313,234.800 264.043 C 234.800 263.773,235.008 263.681,235.262 263.838 C 235.541 264.011,235.615 263.948,235.449 263.679 C 235.298 263.435,235.453 262.570,235.793 261.756 C 236.132 260.943,236.344 260.211,236.262 260.129 C 236.181 260.048,235.727 260.914,235.253 262.053 M233.253 266.853 C 232.780 267.993,232.458 268.992,232.539 269.072 C 232.620 269.153,233.073 268.286,233.547 267.147 C 234.020 266.007,234.342 265.008,234.261 264.928 C 234.180 264.847,233.727 265.714,233.253 266.853 M345.781 268.437 C 345.429 269.118,345.212 269.745,345.299 269.832 C 345.386 269.919,345.756 269.362,346.122 268.595 C 346.944 266.870,346.659 266.738,345.781 268.437 M343.957 272.100 C 342.784 274.419,340.855 277.907,339.809 279.600 C 338.432 281.828,338.342 282.000,338.550 282.000 C 338.829 282.000,342.473 275.871,343.960 272.900 C 344.649 271.525,345.123 270.400,345.014 270.400 C 344.905 270.400,344.429 271.165,343.957 272.100 M336.139 285.300 C 325.476 300.571,307.455 317.256,284.657 332.968 C 281.876 334.885,279.600 336.538,279.600 336.642 C 279.600 337.570,300.693 321.917,309.000 314.824 C 320.065 305.376,334.630 289.496,337.989 283.220 C 338.824 281.661,338.156 282.411,336.139 285.300 M219.029 308.229 C 218.881 308.815,218.838 309.372,218.932 309.466 C 219.027 309.560,219.224 309.158,219.371 308.571 C 219.519 307.985,219.562 307.428,219.468 307.334 C 219.373 307.240,219.176 307.642,219.029 308.229 M217.029 315.429 C 216.881 316.015,216.838 316.572,216.932 316.666 C 217.027 316.760,217.224 316.358,217.371 315.771 C 217.519 315.185,217.562 314.628,217.468 314.534 C 217.373 314.440,217.176 314.842,217.029 315.429 M214.250 326.450 C 214.109 327.153,214.069 327.802,214.159 327.892 C 214.250 327.983,214.448 327.491,214.600 326.800 C 214.752 326.109,214.793 325.459,214.691 325.358 C 214.589 325.256,214.391 325.747,214.250 326.450 M275.200 339.245 C 271.827 341.415,269.484 343.137,271.200 342.184 C 272.293 341.578,278.593 337.498,278.980 337.146 C 279.866 336.340,278.771 336.948,275.200 339.245 M263.662 346.389 C 258.941 349.254,257.130 350.570,260.600 348.616 C 265.035 346.119,269.120 343.467,268.300 343.618 C 268.245 343.629,266.158 344.875,263.662 346.389 M252.300 353.029 C 250.805 353.840,250.896 354.178,252.400 353.400 C 253.060 353.059,253.600 352.694,253.600 352.590 C 253.600 352.332,253.557 352.347,252.300 353.029 M243.730 357.721 C 240.391 359.528,237.511 361.170,237.330 361.369 C 237.020 361.710,240.406 359.960,247.100 356.321 C 248.695 355.453,250.000 354.667,250.000 354.572 C 250.000 354.317,250.245 354.193,243.730 357.721 M232.300 363.826 C 231.255 364.370,230.400 364.905,230.400 365.014 C 230.400 365.124,231.300 364.757,232.400 364.200 C 233.500 363.643,234.400 363.100,234.400 362.993 C 234.400 362.729,234.436 362.714,232.300 363.826 M207.216 369.864 C 207.198 370.839,209.299 372.808,210.331 372.784 C 210.699 372.776,210.409 372.512,209.686 372.198 C 208.878 371.847,208.153 371.122,207.802 370.314 C 207.348 369.268,207.228 369.176,207.216 369.864 " stroke="none" fill="#ec3243" fill-rule="evenodd"></path><path id="SvgjsPath1001" d="M51.326 105.785 C 48.422 107.049,47.973 110.422,48.158 129.600 C 48.238 137.909,48.187 140.854,48.030 137.000 C 47.887 133.480,47.768 152.290,47.766 178.800 C 47.764 205.310,47.882 224.840,48.029 222.200 C 48.204 219.038,48.254 220.744,48.175 227.200 C 47.972 243.721,49.078 254.548,51.799 262.678 C 63.462 297.533,110.347 336.854,179.411 369.703 C 189.214 374.366,193.853 373.565,193.756 367.225 C 193.697 363.323,193.137 359.304,192.778 360.200 C 192.532 360.812,192.469 360.671,192.509 359.600 C 192.624 356.536,192.410 354.969,191.964 355.600 C 191.650 356.045,191.603 355.786,191.785 354.600 C 191.920 353.720,191.888 353.207,191.715 353.459 C 191.540 353.714,191.374 353.000,191.343 351.859 C 191.204 346.891,185.018 319.086,184.280 320.117 C 184.068 320.415,184.019 320.211,184.153 319.588 C 184.435 318.281,184.029 316.735,183.493 317.066 C 183.240 317.223,183.198 317.128,183.385 316.824 C 183.833 316.100,181.975 309.412,181.511 310.078 C 181.264 310.433,181.223 310.330,181.383 309.755 C 181.997 307.554,169.726 272.001,164.004 259.400 C 163.804 258.960,162.265 255.450,160.585 251.600 C 142.913 211.111,116.689 170.314,86.411 136.206 C 75.459 123.868,62.561 110.403,61.851 110.566 C 61.603 110.622,61.552 110.588,61.738 110.488 C 62.123 110.283,58.834 106.800,58.255 106.800 C 58.046 106.800,58.219 107.205,58.638 107.700 L 59.400 108.600 58.509 107.847 C 58.020 107.432,57.710 106.946,57.821 106.767 C 58.087 106.335,56.490 105.493,55.878 105.742 C 55.610 105.851,55.697 105.951,56.076 105.968 C 56.448 105.986,56.860 106.173,56.990 106.384 C 57.128 106.608,56.711 106.588,55.988 106.336 C 55.306 106.098,54.108 106.008,53.325 106.135 C 51.456 106.438,51.951 105.961,53.896 105.584 L 55.400 105.292 54.000 105.262 C 53.230 105.245,52.027 105.481,51.326 105.785 M67.200 116.200 C 68.617 117.630,69.687 118.800,69.577 118.800 C 69.467 118.800,68.217 117.630,66.800 116.200 C 65.383 114.770,64.313 113.600,64.423 113.600 C 64.533 113.600,65.783 114.770,67.200 116.200 M48.687 118.700 C 48.595 119.305,48.520 118.810,48.520 117.600 C 48.520 116.390,48.595 115.895,48.687 116.500 C 48.778 117.105,48.778 118.095,48.687 118.700 M48.682 237.300 C 48.587 237.795,48.509 237.390,48.509 236.400 C 48.509 235.410,48.587 235.005,48.682 235.500 C 48.778 235.995,48.778 236.805,48.682 237.300 M191.656 371.213 C 191.136 371.646,190.506 371.999,190.256 371.998 C 190.005 371.997,190.340 371.650,191.000 371.227 C 192.559 370.229,192.845 370.223,191.656 371.213 M189.100 372.276 C 188.715 372.376,188.085 372.376,187.700 372.276 C 187.315 372.175,187.630 372.093,188.400 372.093 C 189.170 372.093,189.485 372.175,189.100 372.276 " stroke="none" fill="#04b49c" fill-rule="evenodd"></path><path id="SvgjsPath1000" d="M183.900 26.276 C 183.515 26.376,183.200 26.606,183.200 26.787 C 183.200 27.500,184.716 27.609,188.519 27.167 C 190.706 26.912,193.306 26.815,194.296 26.951 C 195.285 27.087,197.919 27.066,200.148 26.904 L 204.200 26.611 201.600 26.352 C 198.640 26.058,184.961 25.998,183.900 26.276 M180.500 26.676 C 180.885 26.776,181.515 26.776,181.900 26.676 C 182.285 26.575,181.970 26.493,181.200 26.493 C 180.430 26.493,180.115 26.575,180.500 26.676 M169.037 27.147 C 168.019 27.369,167.953 27.464,168.502 27.919 C 168.876 28.229,169.224 28.285,169.365 28.057 C 169.495 27.847,170.006 27.764,170.500 27.872 C 171.185 28.022,171.264 27.973,170.830 27.668 C 170.385 27.354,170.515 27.229,171.430 27.093 L 172.600 26.920 171.400 26.907 C 170.740 26.900,169.677 27.008,169.037 27.147 M173.233 26.946 C 173.325 27.026,175.110 27.198,177.200 27.329 C 179.543 27.476,180.693 27.431,180.200 27.211 C 179.452 26.879,172.870 26.628,173.233 26.946 M164.800 27.600 L 163.800 27.920 164.867 27.960 C 165.454 27.982,166.264 28.107,166.667 28.238 C 167.232 28.421,167.272 28.384,166.842 28.078 C 166.385 27.753,166.422 27.646,167.042 27.487 C 167.603 27.343,167.540 27.291,166.800 27.286 C 166.250 27.283,165.350 27.424,164.800 27.600 M225.305 27.487 C 225.914 27.579,226.814 27.577,227.305 27.482 C 227.797 27.387,227.300 27.311,226.200 27.314 C 225.100 27.317,224.697 27.395,225.305 27.487 M230.705 27.883 C 231.202 27.979,231.922 27.975,232.305 27.875 C 232.687 27.775,232.280 27.696,231.400 27.701 C 230.520 27.705,230.207 27.787,230.705 27.883 M156.200 28.201 C 155.980 28.277,154.750 28.457,153.466 28.602 C 150.861 28.897,150.791 28.973,152.800 29.342 C 153.832 29.531,154.042 29.489,153.600 29.182 C 153.165 28.880,153.607 28.823,155.200 28.975 C 156.539 29.102,157.181 29.046,156.842 28.832 C 156.394 28.550,156.433 28.443,157.042 28.287 C 157.472 28.177,157.540 28.086,157.200 28.078 C 156.870 28.070,156.420 28.125,156.200 28.201 M158.700 28.282 C 159.195 28.378,160.005 28.378,160.500 28.282 C 160.995 28.187,160.590 28.109,159.600 28.109 C 158.610 28.109,158.205 28.187,158.700 28.282 M243.064 28.700 C 242.963 28.865,244.257 29.013,245.940 29.029 C 247.934 29.047,248.582 28.959,247.800 28.776 C 246.131 28.385,243.285 28.339,243.064 28.700 M145.029 29.558 C 144.314 29.838,144.309 29.880,144.962 30.130 C 146.048 30.547,146.682 30.446,146.000 29.965 C 145.558 29.653,145.960 29.588,147.534 29.716 C 148.784 29.817,149.447 29.749,149.134 29.551 C 148.485 29.139,146.087 29.144,145.029 29.558 M253.383 29.497 C 254.880 29.613,255.223 29.751,254.783 30.063 C 254.314 30.395,254.343 30.429,254.933 30.238 C 255.336 30.107,256.056 29.979,256.533 29.953 C 258.139 29.865,255.128 29.293,253.200 29.319 L 251.400 29.344 253.383 29.497 M283.436 34.342 C 283.319 34.530,283.669 34.599,284.212 34.496 C 284.772 34.389,285.200 34.495,285.200 34.741 C 285.200 34.983,285.497 35.061,285.871 34.917 C 286.471 34.687,286.460 34.628,285.771 34.358 C 284.706 33.941,283.688 33.934,283.436 34.342 M295.836 37.142 C 295.719 37.330,296.096 37.394,296.672 37.284 C 297.388 37.147,297.630 37.227,297.439 37.537 C 297.255 37.834,297.385 37.904,297.813 37.740 C 298.336 37.539,298.361 37.421,297.934 37.150 C 297.240 36.711,296.105 36.707,295.836 37.142 M306.223 39.963 C 306.100 40.162,306.387 40.224,306.862 40.100 C 307.449 39.946,307.634 40.021,307.442 40.332 C 307.255 40.635,307.381 40.705,307.813 40.540 C 308.336 40.339,308.361 40.221,307.934 39.950 C 307.232 39.506,306.502 39.511,306.223 39.963 M84.866 42.750 C 84.439 43.021,84.464 43.139,84.987 43.340 C 85.347 43.478,85.540 43.427,85.416 43.226 C 85.292 43.025,85.507 42.778,85.895 42.677 C 86.389 42.548,86.420 42.481,86.000 42.453 C 85.670 42.430,85.160 42.564,84.866 42.750 M314.623 42.763 C 314.500 42.962,314.787 43.024,315.262 42.900 C 315.849 42.746,316.034 42.821,315.842 43.132 C 315.655 43.435,315.781 43.505,316.213 43.340 C 316.736 43.139,316.761 43.021,316.334 42.750 C 315.632 42.306,314.902 42.311,314.623 42.763 M78.600 45.178 C 77.720 45.595,77.180 45.936,77.400 45.938 C 77.946 45.942,81.102 44.464,80.600 44.440 C 80.380 44.430,79.480 44.762,78.600 45.178 M72.288 47.835 C 71.370 48.333,71.090 49.200,71.847 49.200 C 71.957 49.200,71.917 48.989,71.758 48.732 C 71.557 48.406,71.698 48.352,72.222 48.553 C 72.637 48.712,72.840 48.707,72.675 48.542 C 72.510 48.377,72.786 48.014,73.287 47.735 C 73.789 47.456,74.020 47.229,73.800 47.230 C 73.580 47.231,72.900 47.503,72.288 47.835 M67.800 50.068 C 65.765 51.127,65.766 51.126,66.314 51.674 C 66.661 52.021,66.837 51.970,67.029 51.469 C 67.169 51.104,67.473 50.921,67.704 51.064 C 67.935 51.207,68.007 51.135,67.864 50.904 C 67.553 50.400,68.694 49.887,69.298 50.261 C 69.568 50.428,69.604 50.330,69.396 49.994 C 69.156 49.606,69.253 49.535,69.755 49.727 C 70.163 49.884,70.342 49.830,70.197 49.595 C 69.867 49.061,69.654 49.103,67.800 50.068 M332.400 50.167 C 332.400 50.268,333.295 50.837,334.388 51.432 C 335.482 52.027,336.264 52.696,336.126 52.919 C 335.974 53.166,336.080 53.198,336.399 53.001 C 336.805 52.749,336.753 52.551,336.161 52.108 C 335.159 51.357,332.400 49.933,332.400 50.167 M64.430 52.164 C 64.071 52.597,64.074 52.798,64.442 53.026 C 64.747 53.215,64.819 53.155,64.638 52.862 C 64.379 52.443,64.878 52.215,65.730 52.363 C 65.911 52.394,65.945 52.235,65.806 52.010 C 65.456 51.444,64.983 51.497,64.430 52.164 M337.694 53.352 C 338.075 53.642,338.300 53.996,338.194 54.140 C 338.087 54.283,338.114 54.316,338.253 54.214 C 338.635 53.932,340.052 54.793,339.821 55.167 C 339.710 55.346,339.975 55.815,340.409 56.209 C 340.844 56.602,341.200 56.784,341.200 56.613 C 341.200 56.442,341.510 56.549,341.889 56.851 C 342.318 57.193,342.235 56.947,341.668 56.200 C 340.636 54.840,338.075 52.794,337.429 52.813 C 337.193 52.820,337.312 53.063,337.694 53.352 M58.765 56.113 C 58.416 56.381,58.131 56.912,58.132 57.294 C 58.133 57.832,58.255 57.887,58.676 57.537 C 58.975 57.289,59.127 56.993,59.013 56.880 C 58.900 56.766,59.007 56.432,59.252 56.137 C 59.801 55.476,59.607 55.467,58.765 56.113 M56.195 58.479 C 54.518 60.472,54.847 63.971,57.091 68.000 C 58.233 70.049,58.727 70.665,58.652 69.942 C 58.591 69.360,58.238 68.581,57.867 68.210 C 57.496 67.839,57.295 67.370,57.420 67.168 C 57.545 66.965,57.412 66.797,57.124 66.794 C 56.705 66.789,56.709 66.719,57.141 66.445 C 57.564 66.177,57.480 65.961,56.752 65.451 C 55.934 64.878,55.912 64.800,56.572 64.800 C 57.248 64.800,57.231 64.721,56.400 64.000 C 55.893 63.560,55.649 63.200,55.859 63.200 C 56.068 63.200,56.444 63.404,56.692 63.652 C 57.215 64.175,57.196 63.349,56.665 62.500 C 56.493 62.225,56.527 62.000,56.741 62.000 C 56.955 62.000,57.080 61.685,57.021 61.300 C 56.961 60.915,57.148 60.257,57.437 59.838 C 57.785 59.332,57.839 58.846,57.595 58.391 C 57.393 58.014,57.342 57.592,57.481 57.453 C 57.620 57.314,57.629 57.200,57.502 57.200 C 57.375 57.200,56.787 57.776,56.195 58.479 M58.533 61.431 C 58.400 61.778,58.585 62.357,58.945 62.717 C 59.552 63.323,59.600 63.276,59.600 62.086 C 59.600 60.742,58.950 60.344,58.533 61.431 M341.342 69.436 C 341.311 69.963,341.446 70.295,341.642 70.174 C 342.077 69.905,342.115 68.918,341.700 68.662 C 341.535 68.560,341.374 68.908,341.342 69.436 M53.505 105.883 C 54.002 105.979,54.722 105.975,55.105 105.875 C 55.487 105.775,55.080 105.696,54.200 105.701 C 53.320 105.705,53.007 105.787,53.505 105.883 M343.000 107.458 C 339.078 109.503,308.956 142.016,299.522 154.386 C 298.929 155.164,296.898 157.780,295.008 160.200 C 276.214 184.276,257.164 215.238,244.189 242.800 C 237.953 256.047,235.040 263.018,235.459 263.695 C 235.604 263.931,235.546 264.014,235.328 263.879 C 234.799 263.552,231.814 270.976,232.215 271.624 C 232.402 271.927,232.360 272.023,232.109 271.867 C 231.576 271.538,229.815 276.178,230.223 276.836 C 230.415 277.147,230.357 277.220,230.062 277.038 C 229.808 276.881,229.600 276.825,229.600 276.913 C 229.600 277.002,228.774 279.397,227.764 282.237 C 224.309 291.953,221.531 300.842,221.761 301.442 C 221.891 301.781,221.819 301.935,221.595 301.797 C 221.378 301.663,221.200 301.651,221.200 301.770 C 221.200 301.890,220.740 303.566,220.178 305.494 C 218.982 309.595,215.794 321.396,215.178 324.000 C 214.944 324.990,214.496 326.790,214.184 328.000 C 211.376 338.860,206.800 362.851,206.800 366.715 C 206.800 370.668,209.508 373.108,213.394 372.656 C 218.157 372.101,255.681 351.867,274.800 339.544 C 307.932 318.188,330.302 297.001,341.902 275.993 C 350.014 261.302,351.461 254.092,351.655 227.400 C 351.670 225.420,351.764 213.990,351.865 202.000 C 352.353 143.914,352.134 113.366,351.210 110.476 C 350.135 107.112,346.339 105.717,343.000 107.458 M346.700 107.476 C 346.315 107.576,345.685 107.576,345.300 107.476 C 344.915 107.375,345.230 107.293,346.000 107.293 C 346.770 107.293,347.085 107.375,346.700 107.476 M308.185 116.500 L 306.200 118.600 308.300 116.615 C 310.251 114.771,310.583 114.400,310.285 114.400 C 310.222 114.400,309.277 115.345,308.185 116.500 M48.155 129.400 C 48.156 132.260,48.220 133.378,48.297 131.883 C 48.374 130.389,48.374 128.049,48.296 126.683 C 48.218 125.318,48.155 126.540,48.155 129.400 M174.400 157.600 C 173.576 157.864,173.541 157.926,174.200 157.954 C 174.640 157.973,175.270 157.813,175.600 157.600 C 176.301 157.147,175.814 157.147,174.400 157.600 M184.900 159.076 C 185.285 159.176,185.915 159.176,186.300 159.076 C 186.685 158.975,186.370 158.893,185.600 158.893 C 184.830 158.893,184.515 158.975,184.900 159.076 M213.700 159.076 C 214.085 159.176,214.715 159.176,215.100 159.076 C 215.485 158.975,215.170 158.893,214.400 158.893 C 213.630 158.893,213.315 158.975,213.700 159.076 M48.144 228.000 C 48.144 230.090,48.212 230.945,48.294 229.900 C 48.376 228.855,48.376 227.145,48.294 226.100 C 48.212 225.055,48.144 225.910,48.144 228.000 M187.700 372.276 C 188.085 372.376,188.715 372.376,189.100 372.276 C 189.485 372.175,189.170 372.093,188.400 372.093 C 187.630 372.093,187.315 372.175,187.700 372.276 " stroke="none" fill="#f47b23" fill-rule="evenodd"></path></g></svg><style>@media (prefers-color-scheme: light) { :root { filter: none; } }
</style></svg>